<svg xmlns="http://www.w3.org/2000/svg" viewBox="0 0 22.33 22.33"><defs><style>.cls-1{fill:#fcac24;}.cls-2{fill:#333132;}</style></defs><g id="Layer_2" data-name="Layer 2"><g id="Resume"><circle class="cls-1" cx="11.17" cy="11.17" r="11.17" transform="translate(-1.64 20.4) rotate(-80.78)"/><path class="cls-2" d="M12.88,13.87c-.34,0-.35-1-.35-1a4.81,4.81,0,0,0,1.23-2.34c.59,0,1-1.42.36-1.93,0-.52.76-4.14-2.95-4.14s-3,3.62-3,4.14c-.59.51-.23,1.93.36,1.93A4.81,4.81,0,0,0,9.8,12.88s0,.94-.35,1c-1.1.18-5.23,2-5.23,4H18.11c0-2-4.12-3.81-5.23-4Z"/></g></g></svg>